<?xml version="1.0" encoding="UTF-8" standalone="no"?>
<!-- Created with Inkscape (http://www.inkscape.org/) -->

<svg
   xmlns:dc="http://purl.org/dc/elements/1.1/"
   xmlns:cc="http://creativecommons.org/ns#"
   xmlns:rdf="http://www.w3.org/1999/02/22-rdf-syntax-ns#"
   xmlns:svg="http://www.w3.org/2000/svg"
   xmlns="http://www.w3.org/2000/svg"
   xmlns:sodipodi="http://sodipodi.sourceforge.net/DTD/sodipodi-0.dtd"
   xmlns:inkscape="http://www.inkscape.org/namespaces/inkscape"
   width="64"
   height="64"
   viewBox="0 0 16.933333 16.933333"
   version="1.1"
   id="svg8"
   inkscape:version="0.92.3 (2405546, 2018-03-11)"
   sodipodi:docname="24-Exam.svg">
  <defs
     id="defs2" />
  <sodipodi:namedview
     id="base"
     pagecolor="#ffffff"
     bordercolor="#666666"
     borderopacity="1.0"
     inkscape:pageopacity="0.0"
     inkscape:pageshadow="2"
     inkscape:zoom="3.9999998"
     inkscape:cx="67.979755"
     inkscape:cy="-19.238437"
     inkscape:document-units="px"
     inkscape:current-layer="layer2"
     showgrid="false"
     inkscape:snap-smooth-nodes="true"
     inkscape:snap-page="true"
     inkscape:snap-midpoints="false"
     inkscape:snap-intersection-paths="true"
     inkscape:object-paths="true"
     inkscape:object-nodes="true"
     units="px"
     inkscape:snap-bbox="true"
     inkscape:bbox-paths="false"
     inkscape:snap-bbox-midpoints="false"
     inkscape:window-width="1920"
     inkscape:window-height="1040"
     inkscape:window-x="0"
     inkscape:window-y="0"
     inkscape:window-maximized="1"
     inkscape:snap-grids="true"
     inkscape:snap-to-guides="true"
     inkscape:snap-bbox-edge-midpoints="false"
     inkscape:snap-nodes="true"
     inkscape:snap-others="false"
     inkscape:bbox-nodes="true"
     showguides="true"
     inkscape:guide-bbox="true"
     inkscape:measure-start="0,0"
     inkscape:measure-end="0,0"
     inkscape:snap-global="false">
    <inkscape:grid
       type="xygrid"
       id="grid815"
       enabled="true" />
  </sodipodi:namedview>
  <metadata
     id="metadata5">
    <rdf:RDF>
      <cc:Work
         rdf:about="">
        <dc:format>image/svg+xml</dc:format>
        <dc:type
           rdf:resource="http://purl.org/dc/dcmitype/StillImage" />
        <dc:title />
      </cc:Work>
    </rdf:RDF>
  </metadata>
  <g
     inkscape:groupmode="layer"
     id="layer2"
     inkscape:label="24-Exam">
    <path
       sodipodi:nodetypes="ccccc"
       inkscape:connector-curvature="0"
       id="path3126"
       d="m 7.143747,13.758334 h 2.64583 l 1.32292,2.38125 h -5.29167 z"
       style="opacity:1;fill:#3C0CFF;fill-opacity:1;stroke:none;stroke-width:0.52916664;stroke-linecap:butt;stroke-linejoin:round;stroke-miterlimit:4;stroke-dasharray:none;stroke-dashoffset:0;stroke-opacity:1" />
    <path
       inkscape:connector-curvature="0"
       style="opacity:1;fill:#3C0CFF;fill-opacity:1;stroke:none;stroke-width:0.52916664;stroke-linecap:butt;stroke-linejoin:round;stroke-miterlimit:4;stroke-dasharray:none;stroke-dashoffset:0;stroke-opacity:1"
       d="m 7.143747,13.758334 -0.29404,0.529167 h 3.23391 l -0.29404,-0.529167 z"
       id="path3133" />
    <path
       style="opacity:1;fill:#e2e7fa;fill-opacity:1;stroke:none;stroke-width:0.52916664;stroke-linecap:butt;stroke-linejoin:round;stroke-miterlimit:4;stroke-dasharray:none;stroke-dashoffset:0;stroke-opacity:1"
       d="m 1.587497,2.1166673 c -0.43974,0 -0.79375,0.354013 -0.79375,0.79375 v 9.2604167 c 0,0.879475 0.70802,1.5875 1.5875,1.5875 h 12.17083 c 0.87948,0 1.5875,-0.708025 1.5875,-1.5875 V 5.2172532 c -0.42369,0.85486 -1.29486,1.3961361 -2.24896,1.3973302 -1.38819,0 -2.51354,-1.1253512 -2.51354,-2.5135411 4.23e-4,-0.7761362 0.35939,-1.508545 0.97255,-1.984375 z"
       id="path3047"
       inkscape:connector-curvature="0"
       sodipodi:nodetypes="ccccccccccc" />
    <path
       style="opacity:1;fill:#c4d2f0;fill-opacity:1;stroke:none;stroke-width:0.52916664;stroke-linecap:butt;stroke-linejoin:round;stroke-miterlimit:4;stroke-dasharray:none;stroke-dashoffset:0;stroke-opacity:1"
       d="m 16.139577,5.2172532 c -0.13414,0.270646 -0.31689,0.5053042 -0.52916,0.7059001 v 6.2476807 c 0,0.879475 -0.70803,1.5875 -1.5875,1.5875 h 0.52916 c 0.87948,0 1.5875,-0.708025 1.5875,-1.5875 z"
       id="path3089"
       inkscape:connector-curvature="0"
       sodipodi:nodetypes="ccscssc" />
    <path
       style="opacity:1;fill:#f8f8f8;fill-opacity:1;stroke:none;stroke-width:0.52916664;stroke-linecap:butt;stroke-linejoin:round;stroke-miterlimit:4;stroke-dasharray:none;stroke-dashoffset:0;stroke-opacity:1"
       d="m 1.587497,2.1166673 c -0.43974,0 -0.79375,0.354013 -0.79375,0.79375 v 9.2604167 c 0,0.879475 0.70802,1.5875 1.5875,1.5875 h 0.52917 c -0.87948,0 -1.5875,-0.708025 -1.5875,-1.5875 V 2.9104173 c 0,-0.439737 0.35401,-0.79375 0.79375,-0.79375 z"
       id="path3074"
       inkscape:connector-curvature="0"
       sodipodi:nodetypes="ccccccccc" />
    <path
       style="opacity:1;fill:#a8c5f7;fill-opacity:1;stroke:none;stroke-width:0.52916664;stroke-linecap:butt;stroke-linejoin:round;stroke-miterlimit:4;stroke-dasharray:none;stroke-dashoffset:0;stroke-opacity:1"
       d="m 0.793747,11.641668 v 0.529166 c 0,0.879475 0.70802,1.5875 1.5875,1.5875 h 12.17083 c 0.87948,0 1.5875,-0.708025 1.5875,-1.5875 v -0.529166 z"
       id="path3062"
       inkscape:connector-curvature="0"
       sodipodi:nodetypes="ccccccc" />
    <path
       inkscape:connector-curvature="0"
       style="opacity:1;fill:#f8f8f8;fill-opacity:1;stroke:none;stroke-width:0.52916664;stroke-linecap:butt;stroke-linejoin:round;stroke-miterlimit:4;stroke-dasharray:none;stroke-dashoffset:0;stroke-opacity:1"
       d="m 0.793747,11.641668 v 0.529166 c 0,0.879475 0.70802,1.5875 1.5875,1.5875 h 0.52917 c -0.87948,0 -1.5875,-0.708025 -1.5875,-1.5875 v -0.529166 z"
       id="path3069"
       sodipodi:nodetypes="ccccccc" />
    <path
       inkscape:connector-curvature="0"
       style="opacity:1;fill:#91b8fb;fill-opacity:1;stroke:none;stroke-width:0.52916664;stroke-linecap:butt;stroke-linejoin:round;stroke-miterlimit:4;stroke-dasharray:none;stroke-dashoffset:0;stroke-opacity:1"
       d="m 15.610417,11.641668 v 0.529166 c 0,0.879475 -0.70803,1.5875 -1.5875,1.5875 h 0.52916 c 0.87948,0 1.5875,-0.708025 1.5875,-1.5875 v -0.529166 z"
       id="path3114" />
    <path
       inkscape:connector-curvature="0"
       style="opacity:1;fill:#c4d2f0;fill-opacity:1;stroke:none;stroke-width:0.52916664;stroke-linecap:butt;stroke-linejoin:round;stroke-miterlimit:4;stroke-dasharray:none;stroke-dashoffset:0;stroke-opacity:1"
       d="m 9.260417,13.758334 1.32291,2.38125 h 0.52917 l -1.32292,-2.38125 z"
       id="path3130" />
    <path
       style="opacity:1;fill:#a8c5f7;fill-opacity:1;stroke:none;stroke-width:0.52916664;stroke-linecap:round;stroke-linejoin:round;stroke-miterlimit:4;stroke-dasharray:none;stroke-dashoffset:0;stroke-opacity:1"
       d="m 16.13958,4.233336 c 0,1.3151281 -1.066122,2.38125 -2.38125,2.3812501 -1.315128,-1e-7 -2.38125,-1.066122 -2.38125,-2.3812501 0,-1.3151281 1.066122,-2.3812501 2.38125,-2.3812502 1.315128,1e-7 2.38125,1.0661221 2.38125,2.3812502 z"
       id="circle3117"
       inkscape:connector-curvature="0"
       sodipodi:nodetypes="ccccc" />
    <path
       id="path3124"
       d="m 14.016197,1.8691333 c -1.201694,0.1378083 -2.109164,1.154627 -2.10995,2.3641969 0.0016,1.2141571 0.916362,2.2327146 2.12338,2.3641971 -0.09004,0.010845 -0.180616,0.016537 -0.2713,0.01705 -1.315128,-10e-8 -2.38125,-1.0661219 -2.38125,-2.3812499 0,-1.3151281 1.066122,-2.38125 2.38125,-2.3812471 0.0862,0.00101 0.172285,0.00671 0.25787,0.017053 z"
       style="opacity:1;fill:#f8f8f8;fill-opacity:1;stroke:none;stroke-width:0.52916664;stroke-linecap:round;stroke-linejoin:round;stroke-miterlimit:4;stroke-dasharray:none;stroke-dashoffset:0;stroke-opacity:1"
       inkscape:connector-curvature="0"
       sodipodi:nodetypes="ccccccc" />
    <path
       inkscape:connector-curvature="0"
       style="opacity:1;fill:#91b8fb;fill-opacity:1;stroke:none;stroke-width:0.52916664;stroke-linecap:round;stroke-linejoin:round;stroke-miterlimit:4;stroke-dasharray:none;stroke-dashoffset:0;stroke-opacity:1"
       d="m 13.500467,1.8691333 c 1.201694,0.1378082 2.109163,1.1546264 2.10995,2.3641959 -0.0016,1.2141605 -0.916368,2.2327192 -2.12339,2.364197 0.09004,0.010845 0.180616,0.016537 0.2713,0.01705 1.315128,-1e-7 2.38125,-1.066122 2.38125,-2.38125 0,-1.315128 -1.066122,-2.3812499 -2.38125,-2.3812465 -0.0862,0.00102 -0.172279,0.00671 -0.25786,0.017054 z"
       id="circle3121"
       sodipodi:nodetypes="ccccccc" />
    <path
       style="opacity:1;fill:#a8c5f7;fill-opacity:1;stroke:none;stroke-width:0.52916664;stroke-linecap:butt;stroke-linejoin:round;stroke-miterlimit:4;stroke-dasharray:none;stroke-dashoffset:0;stroke-opacity:1"
       d="m 7.4083313,7.937499 c 0,0.2922507 -0.2369159,0.5291667 -0.5291666,0.5291667 -0.2922507,0 -0.5291666,-0.236916 -0.5291666,-0.5291667 0,-0.2922506 0.236916,-0.5291666 0.5291666,-0.5291666 0.2922506,0 0.5291666,0.236916 0.5291666,0.5291666 z"
       id="circle3138"
       inkscape:connector-curvature="0"
       sodipodi:nodetypes="ccccc" />
    <path
       style="opacity:1;fill:#a8c5f7;fill-opacity:1;stroke:none;stroke-width:0.52916664;stroke-linecap:butt;stroke-linejoin:round;stroke-miterlimit:4;stroke-dasharray:none;stroke-dashoffset:0;stroke-opacity:1"
       d="m 7.4083313,10.054167 c -4e-7,0.29225 -0.2369162,0.529166 -0.5291666,0.529166 -0.2922504,0 -0.5291662,-0.236916 -0.5291666,-0.529166 -10e-8,-0.2922507 0.2369159,-0.5291668 0.5291666,-0.5291668 0.2922507,0 0.5291667,0.2369161 0.5291666,0.5291668 z"
       id="circle3140"
       inkscape:connector-curvature="0"
       sodipodi:nodetypes="ccccc" />
    <path
       style="opacity:1;fill:#a8c5f7;fill-opacity:1;stroke:none;stroke-width:0.52916664;stroke-linecap:butt;stroke-linejoin:round;stroke-miterlimit:4;stroke-dasharray:none;stroke-dashoffset:0;stroke-opacity:1"
       d="m 7.4083313,5.8208299 c 0,0.2922506 -0.236916,0.5291666 -0.5291666,0.5291666 -0.2922506,0 -0.5291666,-0.236916 -0.5291666,-0.5291666 0,-0.2922507 0.2369159,-0.5291667 0.5291666,-0.5291667 0.2922507,0 0.5291666,0.236916 0.5291666,0.5291667 z"
       id="circle3142"
       inkscape:connector-curvature="0"
       sodipodi:nodetypes="ccccc" />
    <path
       style="opacity:1;fill:#a8c5f7;fill-opacity:1;stroke:none;stroke-width:0.52916664;stroke-linecap:butt;stroke-linejoin:round;stroke-miterlimit:4;stroke-dasharray:none;stroke-dashoffset:0;stroke-opacity:1"
       d="m 7.4083313,3.7041688 c 0,0.2922506 -0.236916,0.5291666 -0.5291666,0.5291666 -0.2922506,0 -0.5291666,-0.236916 -0.5291666,-0.5291666 0,-0.2922506 0.236916,-0.5291666 0.5291666,-0.5291666 0.2922506,0 0.5291666,0.236916 0.5291666,0.5291666 z"
       id="circle3144"
       inkscape:connector-curvature="0"
       sodipodi:nodetypes="ccccc" />
    <path
       style="color:#000000;font-style:normal;font-variant:normal;font-weight:normal;font-stretch:normal;font-size:medium;line-height:normal;font-family:sans-serif;font-variant-ligatures:normal;font-variant-position:normal;font-variant-caps:normal;font-variant-numeric:normal;font-variant-alternates:normal;font-feature-settings:normal;text-indent:0;text-align:start;text-decoration:none;text-decoration-line:none;text-decoration-style:solid;text-decoration-color:#000000;letter-spacing:normal;word-spacing:normal;text-transform:none;writing-mode:lr-tb;direction:ltr;text-orientation:mixed;dominant-baseline:auto;baseline-shift:baseline;text-anchor:start;white-space:normal;shape-padding:0;clip-rule:nonzero;display:inline;overflow:visible;visibility:visible;opacity:1;isolation:auto;mix-blend-mode:normal;color-interpolation:sRGB;color-interpolation-filters:linearRGB;solid-color:#000000;solid-opacity:1;vector-effect:none;fill:#66a0fe;fill-opacity:1;fill-rule:nonzero;stroke:none;stroke-width:0.52916664;stroke-linecap:butt;stroke-linejoin:round;stroke-miterlimit:4;stroke-dasharray:none;stroke-dashoffset:0;stroke-opacity:1;color-rendering:auto;image-rendering:auto;shape-rendering:auto;text-rendering:auto;enable-background:accumulate"
       d="M 14.023433,1.601452 V 1.058333 H 14.2875 c 0.352865,0 0.352865,-0.52916698 0,-0.52916698 h -1.058333 c -0.352864,0 -0.352864,0.52916698 0,0.52916698 h 0.2651 v 0.542603 c -0.313869,0.03105 -0.616075,0.11962 -0.887802,0.25063 H 1.588017 c -0.59000793,0 -1.05884993,0.476594 -1.05884993,1.058334 v 9.259901 c 0,1.030778 0.83008893,1.853632 1.85156593,1.853633 h 4.3129149 l -1.027844,1.851567 H 4.7625 c -0.352864,0 -0.352864,0.529166 0,0.529166 h 7.408333 c 0.352865,0 0.352865,-0.529166 0,-0.529166 H 11.267529 L 10.240202,14.023434 H 14.5526 c 1.021478,0 1.851566,-0.824922 1.851566,-1.853633 V 4.2333329 c 0,-1.3697549 -1.043328,-2.4985489 -2.380733,-2.6318809 z m -0.265617,0.515731 c 1.163368,0 2.117184,0.94298 2.117184,2.1151169 0,1.1721362 -0.952356,2.1171831 -2.117184,2.1171831 -1.164828,0 -2.115116,-0.9450469 -2.115116,-2.1171831 0,-1.1721369 0.951749,-2.1151169 2.115116,-2.1151169 z M 1.588017,2.380733 h 10.281026 c -0.468507,0.477464 -0.75551,1.1310409 -0.75551,1.8515669 0,1.458119 1.178855,2.64635 2.644283,2.64635 0.868703,0 1.635135,-0.4139721 2.117184,-1.0578171 V 11.377084 H 1.05885 V 2.9099 c 0,-0.297734 0.240735,-0.529167 0.529167,-0.529167 z m 12.165665,0.529683 c -0.146131,0.0028 -0.262799,0.119487 -0.259932,0.265617 v 1.3218829 c -5.29e-4,0.07012 0.0273,0.1375939 0.07648,0.1875862 l 0.529167,0.5291658 c 0.249719,0.23949 0.614316,-0.1246039 0.37517,-0.3746539 L 14.023432,4.388879 V 3.176033 c 0.0029,-0.150183 -0.119567,-0.268564 -0.26975,-0.265617 z m -6.8750321,0 c -0.441443,0 -0.793233,0.359025 -0.793233,0.7942669 0,0.435242 0.3528229,0.793233 0.793233,0.793233 0.44041,0 0.794267,-0.357991 0.794267,-0.793233 0,-0.4352419 -0.352824,-0.7942669 -0.794267,-0.7942669 z M 2.9099,3.4395829 c -0.7355539,0 -1.321883,0.5935641 -1.321883,1.3218832 0,0.3528649 0.529166,0.3528649 0.529166,0 0,-0.444314 0.357705,-0.792716 0.792717,-0.792716 h 1.3223999 c 0.436046,0 0.7953001,0.348402 0.7953001,0.792716 V 6.349483 c 0,0.444314 -0.361321,0.794267 -0.7953001,0.794267 h -0.5271 C 3.259704,7.14375 2.9099,7.502339 2.9099,7.9375 v 0.5291658 c 0,0.352865 0.5296831,0.352865 0.5296831,0 V 7.9375 c 0,-0.1453092 0.1144608,-0.2645841 0.2656168,-0.2645841 h 0.5271 c 0.7370892,0 1.3244671,-0.5951138 1.3244671,-1.3234329 V 4.7614661 c 0,-0.7283191 -0.5878801,-1.3218832 -1.3244671,-1.3218832 z m 3.9687499,0 c 0.1430581,0 0.2651,0.1158412 0.2651,0.2651 0,0.1492592 -0.1230759,0.2640672 -0.2651,0.2640672 -0.1420249,0 -0.2640669,-0.114808 -0.2640669,-0.2640672 0,-0.1492588 0.1210091,-0.2651 0.2640669,-0.2651 z m 1.5880169,0.5291672 c -0.352865,0 -0.352865,0.5291658 0,0.5291658 H 10.31875 c 0.352865,0 0.352865,-0.5291658 0,-0.5291658 z M 6.8786499,5.0270828 c -0.441443,0 -0.793233,0.3590243 -0.793233,0.794267 0,0.4352422 0.3528229,0.7932333 0.793233,0.7932333 0.44041,0 0.794267,-0.3579911 0.794267,-0.7932333 0,-0.4352427 -0.352824,-0.794267 -0.794267,-0.794267 z m 0,0.5291672 c 0.1430581,0 0.2651,0.1158399 0.2651,0.2650998 0,0.1492592 -0.1230759,0.2640661 -0.2651,0.2640661 -0.1420249,0 -0.2640669,-0.1148069 -0.2640669,-0.2640661 0,-0.1492599 0.1210091,-0.2650998 0.2640669,-0.2650998 z m 1.5880169,0.5291659 c -0.352865,0 -0.352865,0.5291672 0,0.5291672 h 2.3812502 c 0.352865,0 0.352865,-0.5291672 0,-0.5291672 z M 6.8786499,7.143233 c -0.441443,0 -0.793233,0.359024 -0.793233,0.794267 0,0.4352419 0.3528229,0.793233 0.793233,0.793233 0.44041,0 0.794267,-0.3579911 0.794267,-0.793233 0,-0.435243 -0.352824,-0.794267 -0.794267,-0.794267 z m 0,0.5291669 c 0.1430581,0 0.2651,0.1158402 0.2651,0.2651001 0,0.1492588 -0.1230759,0.264066 -0.2651,0.264066 -0.1420249,0 -0.2640669,-0.1148072 -0.2640669,-0.264066 0,-0.1492599 0.1210091,-0.2651001 0.2640669,-0.2651001 z m 1.5880169,0.5286499 c -0.3606919,-0.008 -0.3606919,0.537169 0,0.5291662 H 14.5526 c 0.345037,-0.0077 0.345037,-0.521511 0,-0.5291662 z M 3.175,9.2604158 c -0.146125,0 -0.264583,0.1184582 -0.264583,0.2645841 0,0.1461249 0.118458,0.2645831 0.264583,0.2645831 0.1461249,0 0.2645831,-0.1184582 0.2645831,-0.2645831 0,-0.1461259 -0.1184582,-0.2645841 -0.2645831,-0.2645841 z m 3.7036499,0 c -0.441443,0 -0.793233,0.3590251 -0.793233,0.7942672 0,0.435243 0.3528229,0.793234 0.793233,0.793234 0.44041,0 0.794267,-0.357991 0.794267,-0.793234 0,-0.4352421 -0.352824,-0.7942672 -0.794267,-0.7942672 z m 0,0.5291672 c 0.1430581,0 0.2651,0.1158409 0.2651,0.2651 0,0.149259 -0.1230759,0.264067 -0.2651,0.264067 -0.1420249,0 -0.2640669,-0.114808 -0.2640669,-0.264067 0,-0.1492591 0.1210091,-0.2651 0.2640669,-0.2651 z m 1.5880169,0.52865 c -0.3450349,0.0077 -0.3450349,0.521509 0,0.529168 H 14.5526 c 0.345034,-0.0077 0.345034,-0.521509 0,-0.529168 z M 1.05885,11.906251 H 15.875 v 0.26355 c 0,0.727136 -0.584927,1.324466 -1.3224,1.324466 H 2.380733 c -0.737472,0 -1.321883,-0.595263 -1.321883,-1.324466 z m 6.8786499,0.529166 c -0.352865,0 -0.352865,0.529167 0,0.529167 H 8.995833 c 0.3528647,0 0.3528647,-0.529167 0,-0.529167 z m -0.6387211,1.588017 h 2.335775 l 1.0273272,1.851567 H 6.271452 Z"
       id="path3997"
       inkscape:connector-curvature="0"
       sodipodi:nodetypes="ccccccccccccccccccccccccccccccccccccccccccccccccccccccccccccccccccccccccccccccccccccccccccccccccccccccccccccccccccccccccccccccccccccccccccccccccccccc" />
  </g>
</svg>
