<?xml version="1.0" encoding="UTF-8" standalone="no"?> <svg width="64" height="64" viewBox="0 0 64 64" fill="none" xmlns="http://www.w3.org/2000/svg">
<path d="M51.75 2.75H12.25C11.1236 2.75264 10.0442 3.20126 9.24771 3.99771C8.45126 4.79417 8.00264 5.87364 8 7V57C8.00264 58.1264 8.45126 59.2058 9.24771 60.0023C10.0442 60.7987 11.1236 61.2474 12.25 61.25H51.75C52.8764 61.2474 53.9558 60.7987 54.7523 60.0023C55.5487 59.2058 55.9974 58.1264 56 57V7C55.9974 5.87364 55.5487 4.79417 54.7523 3.99771C53.9558 3.20126 52.8764 2.75264 51.75 2.75V2.75ZM45.17 5.25V15.6L42.72 12.6C42.6005 12.4503 42.4481 12.33 42.2747 12.2485C42.1014 12.167 41.9116 12.1265 41.72 12.13C41.5288 12.1287 41.3397 12.1702 41.1667 12.2515C40.9936 12.3329 40.841 12.4519 40.72 12.6L38.28 15.6V5.25H45.17ZM53.5 57C53.4974 57.4633 53.3122 57.9069 52.9845 58.2345C52.6569 58.5622 52.2133 58.7474 51.75 58.75H12.25C11.7867 58.7474 11.3431 58.5622 11.0155 58.2345C10.6878 57.9069 10.5026 57.4633 10.5 57V7C10.5026 6.53668 10.6878 6.09309 11.0155 5.76546C11.3431 5.43784 11.7867 5.25263 12.25 5.25H35.83V19.17C35.8292 19.4299 35.9093 19.6836 36.0594 19.8958C36.2095 20.108 36.422 20.2682 36.6673 20.354C36.9126 20.4398 37.1786 20.447 37.4282 20.3746C37.6778 20.3022 37.8987 20.1538 38.06 19.95L41.75 15.33L45.44 20C45.5595 20.1497 45.7119 20.27 45.8853 20.3515C46.0586 20.433 46.2484 20.4735 46.44 20.47C46.5792 20.4654 46.7172 20.4419 46.85 20.4C47.0944 20.3136 47.3062 20.1539 47.4565 19.9428C47.6068 19.7316 47.6884 19.4792 47.69 19.22V5.25H51.77C52.2298 5.25783 52.6683 5.44535 52.9917 5.77241C53.315 6.09947 53.4975 6.5401 53.5 7V57Z" fill="#3C0CFF"/>
</svg>
