<?xml version="1.0" encoding="utf-8"?>
<!-- Generator: Adobe Illustrator 23.0.2, SVG Export Plug-In . SVG Version: 6.00 Build 0)  -->
<svg version="1.1" id="Layer_1" xmlns="http://www.w3.org/2000/svg" xmlns:xlink="http://www.w3.org/1999/xlink" x="0px" y="0px"
	 viewBox="0 0 197.4995 244.5029" enable-background="new 0 0 197.4995 244.5029" xml:space="preserve">
<g>
	<path d="M101.6934,168.9971l-0.6885,0.0742c-5.1787,0.5625-9.4336,4.2295-10.7485,9.2705l-13.1851,50.499
		c-1.7436,6.6807,2.2583,13.5088,8.9385,15.2529c1.0591,0.2764,2.1221,0.4092,3.1675,0.4092c5.5488,0,10.6157-3.7246,12.0849-9.3457
		l0.4307-1.6504v10.1651h14.9473v-51.1475l28.6767-3.1084c7.6026,0.082,15.4727-2.585,19.6128-14.9121
		c5.4893-21.6816,5.7705-34.8906,1.6797-55.7852c-3.061-15.1777-14.7197-21.4033-23.4609-20.4179
		c-3.0494,0.3437-5.6768,1.9463-7.7432,4.3193c6.355,3.9966,12.3359,4.958,12.4023,4.9678
		c5.4844,0.7471,9.3252,5.7773,8.6055,11.2207c-0.6538,4.9541-4.9111,8.6924-9.9028,8.6924c-0.4434,0-0.8872-0.0313-1.3242-0.0889
		c-2.149-0.3145-7.608-1.3662-14.4063-4.5771c0.8071,12.2529,2.2539,28.5039-0.2178,43.0341l-13.9218,1.5078v-15.6543h6.9013
		v-10.9453H16.6519v10.9453h6.9023v91.9493h14.9453v-77.8946h63.1944L101.6934,168.9971z" fill="#3C0CFF"/>
	<path d="M140.4038,49.334c-12.0986,2.8164-19.624,14.9101-16.8066,27.0097c2.8184,12.0997,14.9101,19.625,27.0107,16.8067
		c12.0996-2.8164,19.6241-14.9102,16.8077-27.0098C164.5972,54.041,152.5034,46.5156,140.4038,49.334z" fill="#3C0CFF"/>
	<path d="M146.5098,125.5c3.9512,0,7.3887-2.9297,7.9204-6.9531c0.5776-4.3692-2.4868-8.378-6.8472-8.9737
		c-0.0044-0.0009-0.0141-0.0019-0.0356-0.0048v0.0019c-0.6211-0.081-6.876-1.2422-13.3638-5.3589
		c-0.9316-0.5908-1.8677-1.2422-2.7925-1.9604c-3.8017-2.9346-7.4741-6.8994-10.2827-12.521c-2.7988-5.628-4.7871-12.9971-4.7954-23
		c0-3.1157,0.1958-6.4829,0.6304-10.1162c0.5234-4.3872-2.6089-8.3687-6.9961-8.8921c-4.3872-0.523-8.3667,2.6089-8.8901,6.9966
		c-0.5049,4.2246-0.7437,8.2241-0.7437,12.0117c-0.0103,12.5356,2.6499,22.7959,6.8643,30.9052
		c6.25,12.066,15.6938,19.0572,23.4336,22.896c0.0917,0.045,0.186,0.0957,0.2773,0.1407c7.8267,3.833,13.9819,4.6718,14.563,4.7578
		C145.8072,125.4775,146.1607,125.5,146.5098,125.5z" fill="#3C0CFF"/>
	<path d="M186.6948,107.9385c-5.4199,28.4111-7.5405,57.2851-6.3945,86.0615h-51.1338v11h2.333v38.666h11v-14h40.9204
		c0.6309,4.6758,1.3277,9.3447,2.1333,14h11.1729c-7.8887-44.2187-7.6475-89.5195,0.7734-133.666
		C193.898,109.3125,190.2964,108.626,186.6948,107.9385z M142.4995,223.666V205h38.4107c0.4292,6.2324,1.0117,12.4551,1.749,18.666
		H142.4995z" fill="#3C0CFF"/>
	<rect x="49.666" y="137.3965" width="35.334" height="2.5" fill="#3C0CFF"/>
	<path d="M85.5,84.5c-10-8.5-7.3266-20.228-3.0737-24.0132C89.6338,54.0723,94,45.6821,94,36.5C94,16.3418,72.9575,0,47,0
		S0,16.3418,0,36.5S21.0425,73,47,73C54.1573,73,79.4282,86.7222,85.5,84.5z" fill="#3C0CFF"/>
</g>
</svg>
